<svg width="20" height="20" viewBox="0 0 20 20" xmlns="http://www.w3.org/2000/svg">
  <path d="M4.167 6.042C2.954 6.042 1.961 6.984 1.88 8.176L1.875 8.333V15.833C1.875 17.046 2.817 18.039 4.01 18.12L4.167 18.125H15.833C17.046 18.125 18.039 17.183 18.12 15.99L18.125 15.833V8.333C18.125 7.12 17.183 6.128 15.99 6.047L15.833 6.042H4.167ZM15.833 7.292C16.37 7.292 16.812 7.669 16.869 8.167L16.875 8.333V15.833C16.875 16.37 16.469 16.812 15.947 16.869L15.833 16.875H4.167C3.63 16.875 3.188 16.469 3.131 15.947L3.125 15.833V8.431L9.413 12.951C9.794 13.332 10.397 13.356 10.807 13.022L10.886 12.951L16.875 8.431V8.333C16.875 7.796 17.281 7.354 17.803 7.297L15.833 7.292ZM3.815 7.353L9.413 12.951L15.833 7.292H4.167L3.815 7.353Z" fill="#E7E7E7"/>
</svg>
