<svg width="20" height="20" viewBox="0 0 20 20" xmlns="http://www.w3.org/2000/svg">
  <path d="M4.516 10.298C5.649 12.525 7.475 14.343 9.702 15.484L11.434 13.753C11.646 13.54 11.961 13.469 12.237 13.564C13.118 13.855 14.07 14.013 15.046 14.013C15.479 14.013 15.833 14.367 15.833 14.8V17.546C15.833 17.979 15.479 18.333 15.046 18.333C7.656 18.333 1.667 12.344 1.667 4.954C1.667 4.521 2.021 4.167 2.454 4.167H5.208C5.641 4.167 5.995 4.521 5.995 4.954C5.995 5.938 6.153 6.882 6.444 7.763C6.531 8.039 6.468 8.346 6.247 8.566L4.516 10.298Z" fill="#E7E7E7"/>
</svg>
