<svg width="20" height="20" viewBox="0 0 20 20" xmlns="http://www.w3.org/2000/svg">
  <path d="M7.917 4.792C5.27 4.792 3.125 6.937 3.125 9.583C3.125 12.23 5.27 14.375 7.917 14.375H8.333C8.679 14.375 8.958 14.655 8.958 15V16.823L11.225 14.558C11.318 14.464 11.439 14.403 11.568 14.383L11.667 14.375H12.083C14.73 14.375 16.875 12.23 16.875 9.583C16.875 6.937 14.73 4.792 12.083 4.792H7.917ZM7.917 3.542C4.58 3.542 1.875 6.247 1.875 9.583C1.875 12.92 4.58 15.625 7.917 15.625V18.333C7.917 18.679 8.14 18.917 8.417 18.917C8.533 18.917 8.65 18.875 8.775 18.775L11.925 15.625H12.083C15.42 15.625 18.125 12.92 18.125 9.583C18.125 6.247 15.42 3.542 12.083 3.542H7.917Z" fill="#E7E7E7"/>
</svg>
